<mxfile host="app.diagrams.net" modified="2021-03-11T13:58:41.350Z" agent="5.0 (Windows)" etag="IFfC3cIXbqbjwzRhSknI" version="14.3.1" type="github">
  <diagram id="ePeD8ze7kW5tAX5uNQNn" name="Block 1 Keseluruhan sistem">
    <mxGraphModel dx="1098" dy="626" grid="1" gridSize="10" guides="1" tooltips="1" connect="1" arrows="1" fold="1" page="1" pageScale="1" pageWidth="1100" pageHeight="850" math="0" shadow="0">
      <root>
        <mxCell id="0" />
        <mxCell id="1" parent="0" />
        <mxCell id="uPOA6RyRJlq9qdNPXJUb-2" value="" style="rounded=0;whiteSpace=wrap;html=1;" parent="1" vertex="1">
          <mxGeometry x="745" y="235" width="265" height="150" as="geometry" />
        </mxCell>
        <mxCell id="uPOA6RyRJlq9qdNPXJUb-1" value="Sql permintaan data ke coud" style="rounded=0;whiteSpace=wrap;html=1;" parent="1" vertex="1">
          <mxGeometry x="755" y="245" width="95" height="50" as="geometry" />
        </mxCell>
        <mxCell id="uPOA6RyRJlq9qdNPXJUb-3" value="cloud" style="ellipse;shape=cloud;whiteSpace=wrap;html=1;" parent="1" vertex="1">
          <mxGeometry x="580" y="230" width="120" height="80" as="geometry" />
        </mxCell>
        <mxCell id="uPOA6RyRJlq9qdNPXJUb-4" value="" style="endArrow=classic;startArrow=classic;html=1;entryX=0;entryY=0.5;entryDx=0;entryDy=0;exitX=0.875;exitY=0.5;exitDx=0;exitDy=0;exitPerimeter=0;dashed=1;" parent="1" source="uPOA6RyRJlq9qdNPXJUb-3" target="uPOA6RyRJlq9qdNPXJUb-1" edge="1">
          <mxGeometry width="50" height="50" relative="1" as="geometry">
            <mxPoint x="735" y="285" as="sourcePoint" />
            <mxPoint x="785" y="235" as="targetPoint" />
          </mxGeometry>
        </mxCell>
        <mxCell id="uPOA6RyRJlq9qdNPXJUb-5" value="&lt;div&gt;menampilkan Gambar Capture&lt;/div&gt;&lt;div&gt;pencuri&lt;br&gt;&lt;/div&gt;" style="rounded=0;whiteSpace=wrap;html=1;" parent="1" vertex="1">
          <mxGeometry x="880" y="245" width="120" height="60" as="geometry" />
        </mxCell>
        <mxCell id="uPOA6RyRJlq9qdNPXJUb-7" value="" style="endArrow=classic;html=1;exitX=1;exitY=0.5;exitDx=0;exitDy=0;entryX=-0.001;entryY=0.426;entryDx=0;entryDy=0;entryPerimeter=0;" parent="1" source="uPOA6RyRJlq9qdNPXJUb-1" target="uPOA6RyRJlq9qdNPXJUb-5" edge="1">
          <mxGeometry width="50" height="50" relative="1" as="geometry">
            <mxPoint x="910" y="295" as="sourcePoint" />
            <mxPoint x="960" y="245" as="targetPoint" />
          </mxGeometry>
        </mxCell>
        <mxCell id="uPOA6RyRJlq9qdNPXJUb-8" value="&lt;div&gt;Lokasi kendaraan&lt;/div&gt;&lt;div&gt;berupa koordinat&lt;br&gt;&lt;/div&gt;" style="rounded=0;whiteSpace=wrap;html=1;" parent="1" vertex="1">
          <mxGeometry x="755" y="320" width="120" height="60" as="geometry" />
        </mxCell>
        <mxCell id="uPOA6RyRJlq9qdNPXJUb-11" value="" style="endArrow=classic;html=1;exitX=0.5;exitY=1;exitDx=0;exitDy=0;entryX=0.397;entryY=-0.02;entryDx=0;entryDy=0;entryPerimeter=0;" parent="1" source="uPOA6RyRJlq9qdNPXJUb-1" target="uPOA6RyRJlq9qdNPXJUb-8" edge="1">
          <mxGeometry width="50" height="50" relative="1" as="geometry">
            <mxPoint x="840" y="375" as="sourcePoint" />
            <mxPoint x="890" y="325" as="targetPoint" />
          </mxGeometry>
        </mxCell>
        <mxCell id="uPOA6RyRJlq9qdNPXJUb-12" value="status kendaraan" style="rounded=0;whiteSpace=wrap;html=1;" parent="1" vertex="1">
          <mxGeometry x="880" y="320" width="120" height="60" as="geometry" />
        </mxCell>
        <mxCell id="VfQp6pYmzzfFE-GL6JmL-2" value="" style="shape=image;imageAspect=0;aspect=fixed;verticalLabelPosition=bottom;verticalAlign=top;image=data:image/png,iVBORw0KGgoAAAANSUhEUgAAA6wAAAGfCAMAAABslK9cAAAAAXNSR0IArs4c6QAAAARnQU1BAACxjwv8YQUAAAAGUExURQAAAAAAAKVnuc8AAAACdFJOU/8A5bcwSgAAAAlwSFlzAAAXEQAAFxEByibzPwAAMx5JREFUeF7tnYGy5igKhWff/6U3wlExGpXERP7bfDVXERBPTOjume2q/e9/zl/nPwNAigSRrUDKj+DN+vfBh7kVSJEgshVI+RG8Wf8++7/Ji2aFsQ1vVsca3qwXeLM61vBmvcCb1bGGN+sF3qyONbxZL/BmdazhzXqBN6tjDW/WC7xZHWt4s17gzepYw5v1Am9WxxrerBd4s64EfylsK5Dyw3izXuDNuhL0y1Yg5YfxZr3Am3Ul/j5XYPQW/eVqsS3X3+cKjN6iQpb8Q062HrP/YnTYlrv/Nn/tfbYweosqWbJBlz3P/ovRYVvu/tv8tffZwugtqmQVzYr5Mb/2cm3LNfqZ/RhGb1Ely5v1wLZco5/Zj2H0FlWyvFkPbMs1+pn9GEZvUSWr0ayHKzqTdUzJOWY+0wa25e6/zV97ny2M3qJKlmxBsmjNTraOMfRsIDhnmM+0gW25+2/z195nC6O3qJIlW5AsXoaRI3KcRZe9H9ty99/mr73PFkZvUSWrblYe4xIJqprK7P3Ylrv/Nn/tfbYweosqWY1mjY7DYshm3xy67P3Ylrv/Nn/tfbYweosqWdyLDFtoz7hkdI+qy96PbblTt8lv7aUH+bX32WL/MzQVqGTVzUq+YMoyukfVZe/HttyJ2+QU+S6X8mvvs8X+Z2gq0MkS2cIKpqxzu+ZPYFvuxG0i4617/7X32WL/MzQV6GSJbLJ4GcYYkfYcuuz92JY7vs2U8dKD/Nr7bLH/GZoKdLJyNht5xJ+qeGD3JLrs/diWO77NlPHSg/za+2yheobwL4JyA6/IUQY4E/aAZt7sZhAPwy5asYuEIIjoHLrs/diWO77N+JbyO5SOvBB+YfFPj1H8F1A8Q7ybPJcrWalcdWlmzm8Hx4H5TLmIFrkUVdUKNmNb7sRtlq8nmOQIA/1DQXaTJc2Jv0g6iv8C888groMNLOE+wrlUsRjQzJzf/hb7FeiwLXfmNsNHE9N4piWcsMlMVnRg1WMixTzTzyAvBDdENlYhLhJmrg8U22BI5yb2K9BhW+7UbYavBnk88UrY2YFE3oBFl5kc60w/Q5WYHDwXfxKhP7lMIjLFy5re/hb7FeiwLXfyNsMHEDJpJsICoTwKA+m86DGTY53ZZ+B7kyQPT8eYUqQ9RGTS66Hl/Pa32K9Ah22507fJ779IZ5td+ftARp1+wUyOdWafId1OJl4cc5hpKe0hIjNUDGi2v8V+BTpsy9V8DufXz3Z0xe8jLeMwYCbHOrPP0MoL95bcwcBKmBOITCoI4NrGfgU6bMsd32ZKCKlFOtvZRR9HXNJcpF8wk2Od2WfIeaKXsnXY4QfubE5ARWoQ3cZ+BTpsyx3fZkqgVJnPJruTGROq7Ctmcqwz+wwyT7RS7qswsk3r2bpFJlUDcG1jvwIdtuWObzNl0IwPIA8cz2ZMEGOfmRzrzD6DbJ+ileKCRrKzNUVZmNBsf4v9CnTYlju+TXrtNGPiDyEFaITJa3IEE+4+MznWmX0GXBlR7omXGW0si5weIvPYHqtNb3+L/Qp02JY7vs0jIb39QP4SgkFjmphoki/tu2KcYZ/pZxCJuCOyD+TysJMxSVE4Lua3v8V+BTpsy/X3uYLpZxC/eLHVXKZ2m64rM7M5v/0t9ivQYVuuv88VzD9D7lY28lKMyaupC0Myv31I+vVDx0IFn2Bb7v7b/LX32ULxDOmj5/n0e+h54nmCZmZ7e+g7RWXiyNZuIe7s2Yltuftv89feZwvVM3CvYMcx5RVZqRSvJis38642T1eNULp2U+DOnp3Ylrv/Nn/tfbYweouXsrR6bz/er71c23KNfmY/htFbvJTVCvQe4fbj/drLtS3Xwmf2LTh2KRZuEYbkUlYj0H2E24+3/2J02Ja7/za/VfDOaUZv8VIWAmHCL1/iFzJhUDSswyxDB8KW7pIrv1Vsy91/m98qeOc0o7d4KYsDocW4H2lFI4fCEDowQM4w5NDZzuaZC7dZbMvdf5vfKnjnNKO3eCkLAW7FuKCRpyJwgAyOsU0DpwVTJEvaXrvYlrv/Nr9V8M5pRm/xUhYCxQSbRnbl7YjRxEP2CLOm7bWLbbn7b/NbBe+cZvQWL2UhUEzRBmST6yAZFKeJlweUHcC6oO21i225N25zast82W/f5zun7f8mmwouZSFQTLBpZPL2aBwe7sockmZNN2gQ23InbxO/dIbki19DC2ZyIt++z3dO+/YZWjQVXMpCoJgKF5FtGJwXRpEmd1R0gwaxLXfuNjkLLTizRfGSFKkLeOe0b5+hRVPBpSwEiqlwEdku8sIo0uSOim7QILblTt1mTOJ5ZoviJSlSF/DOad8+Q4umgktZCBRT4aJV3o4YjxxKLmHW5BK/gW25U7eZkmie2aJ4Sd++z3dO+/YZWjQVXMpCoJjSIszSI0I05DGmsSfYZ9peu9iWO3WbKYnmmS2Kl/Tt+3zntG+foUVTwZWs9JshTbHxYtMR7AkjGSmDSHbwyh0VF26z2JY7dZvpVdAUFuLlyBeVbJ5k6JKJlIW8c9q3z9CiqaAtK7yV8GLkxO4Ux8QWGykFaXAR0i658lvFtty52yxexmGLv6QWphjNthwHTCUt453Tvn2GFk0FRmUZxrbcudsMv3SmRDZ5DS8W2ZaOASjxEe+c9u0ztGgqMCrLMLblzt6maFfMNCX7mM9+rEdMpi3indO+fYYWTQVGZRnGttz520zdKqe4PczRDhy2XPaYzVvDO6d9+wwtmgqMyjKMbbma20S3YkuYit9tox0InS2WPWbz1vDOad8+Q4umAqOyDGNbruo2uQGxJUydZs2xAZNpi3jntG+foUVTgVFZhrEtd+o2Y07VrGl7mKMd4LVwXDOXtYp3Tvv2GVo0FRiVZRjbcqduM+VQNrZIm+bYnMkfg33mslbxzmnfPkOLpgKjsgxjW+7UbcYknrGiCQ0aR3JJRxgHTCUt453Tvn2GFk0FRmUZxrbcqdssWhJT8oUpBgiYaRwwk7OOd0779hlaNBUYlWUY23KnbvPIkW0YLB6jg4wD6ZObeowzVvLOad8+Q4umAqOyDGNb7r/2Pt85jX5V2gykSBDZCqT8CLblerOuAB/mViBFgshWIOVHsC3Xm9UEVj8S2x/vemw/rzerCczKsv31Lsf243qzWsBqU3izmsKb1QJG/+UuyLL9+a7G9tN6sxrAalNY1fUetp/Wm9UA1BT2hLEs29/vYmw/rDfrfqw2hVVdL2L7Yf+hZsW3R8BlA2iy9qFA1T/Vrbaf1Zt1O5DkzWoA28/6DzWr6FY4bABNB3DYAJoC8PwD2H5UvI6tQMrr4LgDOEwASQF4bABNAXj+AbxZR0DK++A8s01hSRgUMfD9ff6dJzUPPj2Db8TqR/KvfbzerHaw2qverEbwZrWDN6sSb1ZnG0Z71ZvVCN6shvBm1eHN6uzDZq96sxrBm1VJ+N3P+bPgLdvEm1UJXqrzN8Fbtok3qxLj7/MVrD7ycl3erH8Lb1Y7eLM6XbxZ7eDN6nTxZrWDN6vTxZvVBPjvQQF4VuDN+rfwZjUBGjUAzwq8Wf8W3qwmQKMG4FmBN+vfwpvVBujUta/Dm/Vv4c1qA7SqN6tzjTerEV7oVW/WP4Y3qxG8WZ0R3qxWWN+r3qx/DG9WK3izOgO8Wc2wvFe9Wf8Y3qxm8GZ1+niz2mG5LuvNagFo+QkqtXgGc0DeCpbWMgrE0dQCaQ7u4yfwZn0G1JkD4mhqgbTdQM029ivQUKm1KX+pqqW1LF9XR9x+3d6saiq1NuUvVbW0luXr6ojbr9ubVU2l1qb8paqW1rJ8XR1x+3V7s6qp1NqUv1TV0lqWr6sjbr9ub1Y1lVqb8peqWlrL8nV1xO3X7c2qplJrU/5SVUtrWb6ujrj9ur1Z1VRqbcpfqmppLcvX1RG3X7c3q5pKrU35S1UtrWX5ujri9uv2ZlVTqbUpf6mqpbUsX1dH3H7d3qxqKrU25S9VtbSW5evqiNuv25tVTaXWpvylqpbWsnxdHXH7dXuzqqnUviOfi96vvVTV0lqvXFdLouYgqOqIe0m3Am9WNZXaa/l0uxSO8ywxW7Wp4P7OBktrKYqdby2sm9sb7ovMC5Dc2TMqR9oIOJbzavFZ9ivQUKntyU+3q73mufTuyTBWsLSWqlhxb52PtRFQHYTkzp5huShO+6qnCY//Uul59ivQUKntyU+3q37EqQ3dk2GsYGktVbHi8+x9q3VEdRCSewcMy8WMt1rqqPtSZQX7FWio1Pbkx9vVP+HUju7JMFawtJaqWPF99r7VOqI6CMm9A4blUobq5HnCXbxTWcF+BRoqtT35uN0bDzizpX8yjBUsraUq9p/Il3ZFHVEdhOTeAcNyKUN18jzerGoqtT35fLtlgrxyYR8z7OBMJk9kss3hZMBZcRm4w9JaqmKhQeMG0azFk9PiWPEYp5w8A5I7e8blUgYZhZgwMcIOqTEhGMEm84KQ2k34gv0KNFRqe/Lpdos4ZcctbMcR76Jw5hh8wcKAsU0vpmZpLVWxIzlukGaYhf+waQFXsZij2NlkXC5mNMSkSLKRQ9YxHgMRnFcME75gvwINldqe/Op+seIpjmJxzDzKSWYIE2ObXkzN0lqqYkdy3JDNYirsxmKOYmeTcblUA5mipDAZNuuxR/iWhklvs1+BhkptTz7dr4xjQc4Y4DlFWhOPNPEgxja9mJqltVTFjmRcYBiwFxVoFV00tRZzFDubjMvRuw7ENY9pX45EM2aEOQevCKWHSW+zX4GGSm1Pfrjd4oajHWZpHyPZ2ckjJh4RChaZ2VHTi6lZWktVLCTjYbOFCnQLaUEDL8q0KYqdTcblUo1o8Bj3ye9ApBLZ1SFmbmW/Ag2V2p58ul1xxclkf7SDIQI084iJx5zCZnS06MXULK2lKhaS+RJpJUYYcSEjp7QZip1NxuVSBt7yqaQoEM3sKcIXHGXHSW+zX4GGSm1PPt9uvuNkhTnblBQXmHnExCNNnJzNC3oxNUtrqYql50yGqEB+LGTklDZDsbPJuFzKwFsuS4r9+SvgiRDxC45t46S32a9AQ6W2Jz++tpQTjTBL+xjJzk4eMfEYJiSLsU0vpmZpLVUxPOfxZwk24pIIc7Jp4EVMo8Ucxc4m43I5g62ipOyzZApfYbc5SoyT3ma/Ag2V2p78eLvpluWcgzSSnRN4xMRjmJAsxja9mJqltVTFOLm8qVQiTNIu4zEyRbGzybhcyoDcoqTYns1ohUkkXHCUHSe9zX4FGiq1PfnpdqOBWY7nRR2Sr12GEW3Si6lZWktVjJPz7VVT40LLK5wDyZ0943IpQwqoxUTzmGKQhpxxwZE9TjpDm7CL7QCv2XOMWM2gV7CTSm1PfrqXcCtk8pS8cSgyaahj8NB/XyYXj22uIzdYWktTLCbHCWuakn3M4SbYF+ZkU8IUyO1sGVZL50WDpPAquchNJuwAL+G+JudOk4vLOa945NUcquTtVGqv5R/XEMgWZcY5kOxgwMtWWMDJE428wpCmFteRGyytpSgWnpgfNK3Sg6c6bGKV7eCOKWOQ2tkxKkbnMfAEF/ax/0DmISXNbF0zkXJC5MNIp9EUhuibRKlgM5Vam/KXqlpay/J1dcTt161uVpkOKz3nMadozhqjU7AbVis025S/VNXSWpavqxKXHft132hWGBm4/rVmzY9qUv5SVUtrWb6uSlx+z/t1By0aEa1suCiU4rqiMH4CVhvuLT04TcZYqmppLcvXVYnL73m/7iRlklY2XPGR9A+l37GT/JyB5LDGUlVLa1m+rkocXvPh3q8bQqZpJbMv1tFWPNDm7yU9LjAqf6mqpbUsX1clDi+ZgGsbWhE5mXbSiq0yAHsO2vHL4DlMAWmLQNEVWL0uTB0oYyNaETI57qwKPClqH1ZLz0gYlW/2Uk1fVyUOL5mAaxtaETI72o0C2qIwfgJWG+4tkBzWMHuppq+rEofXfLj364aQaWR2NFsFVFVVCrbDauniWLdN+WYv1fR1VeLye96vO0mZRWRHUxZIpqaqTsFuWK24N5vyzV6q6euqxOX3vF930KISIdJbT1EFZ9Ap2A2rFZptyjd7qaavqxKXHft1q5s17EhWOQdyEPMMSgWbqdSukj+uoznJ7KWuFNasdesAbOrsnSrbzrmlqEbfrGFLNDCJAnGhKqpK3k6lViE/3Ha8ojNXfoHmojS5n3JHWLy2OMNCLbIBLYNTCTZ19k6VbeVA1nPiA6qgTenpsn1wGMV6ikXP8hGVWpX8zt2svQazl3pLWLy2fH2yTPLeqk2k+jS1mKmdU4rs+7IKjsdcVOkB+xVoqNSq5HeS116D2Uu9JyzuSruLMtmLWQ0qFFVLOqFETmnLe4Y3q5pKrUp+J3ntNZi91HvC4q60u6jy/GFRoVNo5oyUUrbVc3mEN6uaSq1Kfid57TWYvdR7wuJnmj7Xosrzh03laWoxcUbOKP9e23N5hDermkqtSn5jd3TRnF5I9ksfrafQ5H7KTWHYFm8lTjSeahaLScqyLTqhSMo4cvPrE8WT85jIpB+2UuySkDLKeZ39CjRUalXyT8m0hI8nMZ5N1avS5H7KTWF4+Pi9xkWYUs3SqSJWuN47UTZlHIaUwSaNGKiZA8cCS5q6YMNe9ivQUKlVyS+TseKJxtKTBphsT6HJ/ZS7wuKViKtJtTCXThWxwvXecdmUQKkiX6zjiGCxjM4rvFnVVGpV8stkrPgdhCFGOcDD2ZxDk/spd4XRvuMnzoFYiz7jAyxo0jHeOy6bEsiIcg7YgjePweCxmC7Jj7iR/Qo0VGpV8svkuKL5GE5BuJM3W2M0uZ9yVxjdQ/gHM/uKGSOcKmKF673jsinhXEtaZCZHkZnT2hybRynvs1+BhkqtSn6RnO6e5vJdHCaW2S3CQzS5n3JbWNgY9sYZppyJWwdgU2fvsGyKp1rRE41jZjNHeCymS8KHMEh5n/0KNFRqVfKL5LILj0G8XxpSmK0UnUCT+ym3hR0b4y3EErFWUfPWAdjU2Tssm+LhdTHJkUZhksFjMV0iS25jvwINlVqV/DI5rmgOQ+FIq3o9RpP7KbeFxU9VfLLRKGreOgCbOnuHZWM8JSadNPNCjsHgsZguCQ8+SHmf/Qo0VGpV8svkuKI5D8fEI3nYpIHtKTS5n3JfWPxU8ycbjaLmrQNSaZpajMqmcDbiFpp5Icdg8FhMl4ReHaS8z34FGiq1Kvk5ORi4fDFKD9u05pFjc2hyP+W+sLgzV6g9B7cOwKbO3lHZGBZ50aSZF3JMBpbJe0Ho1UHK++xXoKFSq5Kfrpvnoh+lJwJ3jIVxDk3up9wXFnfmCnRBaQLlahLs6WwdVY1hkVfIC+PxQwsaUiRPYbwm7B2kvM9+BRoqtQr5dN2R7IrzYWEKMypHD6xgzDCf+TEPhMWdaeYLoSlVLRbTYEtn56AoouJ0Mo8Fj7TOQ/TkJY3Be8kw4Qv2K9BQqbUp3+ylmr6ujrj9ur1Z1VRqbco3e6mmr6sjbr9ub1Y1lVqb8s1equnr6ojbr9ubVU2l1qZ8s5dq+ro64vbr9mZVU6m1Kd/spZq+ro64/bq9WdVUam3KN3uppq+rI26/bm9WNZVam/LNXqrp6+qI26/bm1VNpdamfLOXavq6OuL26/ZmVVOptSnf7KWavq6OuP26vVnVVGptyjd7qaavqyNuv25vVjWVWpvyzV6q6evqiNuvm5p1P1DzE1Rq8QzmgDxrQJ05II6mFkhzcB8/gTfrM6DOHBBHUwuk7QVanEn8xuyw/FUYf7n+6SnxZjXD+t9qvFn/Ft6sZvBmdfp4s1rhhX+L82b9W3izWsGb1RngzWoE6tXFb8Ob9W/hzWoEb1ZnhDerDdCra1+HN+vfwpvVBmhVb1bnGm9WE6BTA/CswJv1b+HNagI0agCeFXiz/i28WS2APmXgW4A369/Cm9UOy1+FN+vf4h9pVmOP2ZazXKM369+iep/4sxiTXdlieC1CB8UiEpzBXUduweUIeCbQZc9DMhh4prjKX67xnadehm11Bmm8z/Qp8RxHdvIsVtGEjUUkOqrAbURFRcllx5+4+Xzt7OUa33rqRdhWZ5DG+8wfHs1YwIkgT8I8LUBelf4npEqns7qsO778xJIG3QHt7HUawcKnfgPb6gzSeJ+5CcJcLHJQ7GMTa+HPyQHpf0SuqejW+cwhRSXRrJoT2snrNIKFT/0GttUZpPE+y+8uLXiOQZHDJtbtvQfS/4jq5BnmM0eUlfJdqU5oJy/TGFn31K9gW51BGu/z9JvEecVL4b3MPhU6ODzRFyZeZJ8wj4lNEWXEMoZiTpiDgWXyByvO0eITUmJa5IQqHH05I2dLI4WzfcywyZdTJE3nE9rHmMG2OoM03mf6whj6uhJYCN85G8bBqRCCGI6RP2D6hxOL8PGDrxpRIFbYl3NkIXZFR/ZzTqjOwAX7LCa4wpj8iIKYnIwwykwMjFgfY0XT+YT2MWawrc4gjfcZP6UYid8ZwWbhgMHI5Sl0OGhgL08ohDEMbMcDZAAgEoAY2MkBFw+oUIxhOgWKxXiMpAPTnFewwwC7jFc0nU9oH2MG2+oM0nifx6fEYA2PMA94hSUWgcKWiwCt4cUopoaNGQsmhg7oaKyRKYKYsj8G5YLVp0We6rAcI+HpGSxp4hn5YcgBTJhLms4ntI8xg211Bmm8z/Tl0UjIz/G8ofAUwUbtnI5RTOEMgmzyE3BFxIICIUywh0Y2AS/i0FvICZths58GtgHH0xyDKQkFoqOKFzSdT2gfYwbb6gzSeJ/xAyzIX10VFK4y2KhzuODFKCaZnu3DKs8UCwoUQV6Rp+GGq9gmI3JCmIh+YYMkjY1yFZbZElOaS5rOJ7SPMYNtdQZpvM/0ARakr6614WwwVS6t4cQoJpmdbJplRC7ogCJIK3bUm6Kn2CYjckKYiH5hg/yIp6LBoAW7EMhxnkuazie0jzGDbXUGabzP/AEWsLcVTK5z6JyLCtlOizDJ7GjzLCNyQWYRpCU76k3Rc7mQU4wHol/Y4LJZ41CMZbyi6XxC+xgz2FZnkMb7FP0YjLhgb7NZT3PilBwr8IJHMcVstskss5i84A1yW5jS1jjTEMaUyQuyi0Uznm0ao59Jp7FVnpBNjGW8oul8QvsYM9hWZ5DG+8wfIH+pbCJTBBPw1AFZ/bBiBV63FmHKQ15gRaRF/vI5iRYiGX7YeeQJeXXgFE+O0gbptKIcTxikv4hXNJ1PaB9jBtvqDNJ4n+kDjF8npjCK4AEiZIcIw0smLpEZSYE0YRGAGabowioQ7ewMVlocS8zSj+mY4xBdwn+OEKUDIy0JhNJ8GHEIPiZ5Yh6cZ1q+RzRPsYNtdQap3mf4kBLCla28RS7IDmAdkU42wgAnTzRSipzJCFYYyA5QhIAjUCxFILpDPFtkxELZhicny/kwMIU5eAPkAnClXWyGIeZJJ9sn2t4HJCU2sa3OIMbf53sYfHBvVqeLN6sdvFmdLt6sdvBmdbr8w81q7sm9WZ0u/2qziv/kYwZvVqfLv9qsFvFmdbp4s9rBm9Xp4s1qB29Wp4s3qx28WZ0u3qx28GZ1uniz2sGb1enizWoHb1anizerHf7VZqX/zXszkFKD+FYgpX6fiP8+eJ6XwWHmgDiaWiBtL4a0QEoN4luBlPp9Iv774HleBoeZA+JoaoG0vSQtMLbRvSgY28gKKi37xS3hq8eweV1Q1RG3X7c36yRZQaVlv7glfPUYNq8Lqjri9uv2Zp0kK6i07Be3hK8ew+Z1QVVH3H7d3qyTZAWVlv3ilvDVY9i8LqjqiNuv25t1kqyg0rJf3BK+egyb1wVVHXH7dXuzTpIVVFr2i1vCV49h87qgqiNuv25v1kmygkrLfnFL+OoxbF4XVHXE7dftzTpJVlBp2S9uCV89hs3rgqqOuP26vVknyQoqLfvFLeGrx7B5XVDVEbdftzfrJFlBpWW/uCV89Rg2rwuqOuL26/ZmnSQrqLTsF7eErx7D5nVBVUfcft3erJNkBZWWF8XVpWfOuifoxcco+OocHVDVEXdf96on/ovNejxTRriyRdBympxf7bwuhZMO4NBRb7ysFFJT6N5xN0WquasuA9dSULVTvHcuhB3AIWh7a8Z5OWGu4pt0FCjFiafikSY4OTi8mRM5vdrYq3TvsES9r1kIaadjlGfe1ajl8V3U+xcoT1dIU4uublx9+0V3d4JjZwCrNjk+U/FdOgq04vJT0YBVnOCMOVPk7Gpft9CtwxL1tladlFWmK4+8KVHN3XPyU2LOLFCO6h1xfd1pfyOrv5OhlMFn8teblUiPiIlnXQPl5Gpbt86twxL1rkYZkVRElSfeU6jn7jnX+1YoR41Oqf4pMdrK6u8kOrsz/0azlrux/CvNelVae+I9hXrunnO57+bdlqBGp1T/lBhtZfV3Ep3dmX+kWU9LTJqiObna1q1zOuyYo5Gd7A6kBRmcRVNyhSnHA+WCBiRRXvxhRwhf0A0u5O45p33pccjgWDL0pAo0teiXzgpoPshicowtMYdJUDkKcn4/7ws6CrTiYj5P8XIAFrqaObva1y1UHBYG0kKK6P8yPLg5WtpiUYaDEcMBaROHI++iMDloyb42vdhK7p5T7pOPI6fqOiYpS7XoF077kUVzcqYRA/tjPFM5CvKz9fO+oKNAKw75cdvxlKICm9IzQc6u9nULycOifTXyFAa4YiSbKZcWgcZzFDkxLn1NerGV3D1HPkda0NSKaCkKNukX5mh+GXJJozAxHjNPmRhoI6p3876go0Ar7ngsBmt2SFtfEUatpVtKHoaRVuySI0+wy3g26y8yFhfIvSlV+pr0Yiu5ew7d4wEvaEQtOeZZR6x7vblfV4o7gMEOjNlME42CylGQ6ydjGx0FWnExX2zLV3nrSfOmanu3ngwGCQTZ7KIBtvBjjqtgIYnH5E8BQbFXhhu5mV5sJXfPic8jbDwQr7KPZx3Y1dncrxui4noPk+EF+Q7ggCe5I5WjJO6O+3fSUaAVF/Pltnh19540b6q2d+vJoMyDn0a25dhYwcQI/0F+gwn2xA0pfFh1bqYXW8ndc+S+ZJPBq+iTefNgV2dzvy5FRTdhJqL3mIV5SjpIuy/4481aAu+tJ82bqu3dejIo8+DHGCb2xHy5EuG6WQubEbtymOY6N9OLreTuOXJfssngVfTJvHmwq7O5X5ejKadIFrHoD7NMCRR7WnizTpI3Vdu79WSwYcNzvIZkyRljNpvNKhaE3JtSpa9JL7aSu+fIfeV18aJwqcGuzuZ+XY5Wr5GgRUwIIxsyJXBeV+Q3nYxtdBRoxZX5p0e89aR5U7W9W08Gox0m2HIkUg7NNArzmHjkiZELkRo3yEmmnunFVnL3nGJfXNDEi+SSedNgV2dzv27aX9ahiRbsif6QGE1wWjZ43KzFtrqGpmonVysu5wcjrjBrixGi4nl7t54M4rJ5YL+0GRngBXZV/oh47TIaNzR8TXqxldw9p/i6YfNULHAHWsoaLTqhgxiNKnmOdhxSmrSY07JFvoHz5kuOLWlXtohKQBke0MnVlDnIx5KBJZwqTYm8qdreq1cedqzgKCbyBqQr2Jg4eBCjMQzgPAwe8y6awoKXBC9rriNruXtOKZ0W8OCp4kg+LakUTS26hSEhG2HOJkZyoUycAYcOsG6Ro920DDakfYNtk1WJTq6mTNCWkb5kqMoxeUu1+bpadVhcwY0p5iGzMJBGK3iSPyM9yQwTLdIqjMFu0gkt5d45/CBiq1xGo8xQgY2d/b3SJCZWgHV20Bidh4WZoaQA1k1yuJ8XyVmwBtvmqjLnXLHUlHmHrKDS8lhcLo15C1/d8f532QKqOuIW675RTdmsovVhDrZNVQXn3OIwGNuotCwUlyth3sK7d7zwul4Bqs7ixHqt7jvF1M0K44DtwbapquCce2iLLk2Zd8gKYK0Tt//hiHdlWHqXLaDqLC7LXqz7TjGdlpx9wIswJHcKHx42kZMyepxzaBs7Z7a/S1YAa5041Hla5invnk+3teS63gGqzuKy7IW6U0kledvM/uIQXoSDA9lzzNmW44hzFtUNzBZ4k6wAFrQtERcrbeVdAfyIa67rDaDqLA6qg3edbq6nJ++bKVCcIh8BgYuRrDG8I3MUzcC3jawAFnQR5Ph13n0M3BQBlynSW6UpAcUHL9/PDEFFtGB0yNkHvICHJ4xhEGFejzl2XIOcbUBGG+T8NniWD8CBpoAqKGxDGRvJEma0FIJ5AQ9PcQTs4YQJUCqBKgx828gKYEEXQY5f593HwE0RcJkivVWaElDMwLeNLGFGSyGYF9EjFiInJMlll3Nm2EvUoe/JCmBBmwlxS3j3MXBbZq8Lqs7ioNqGbpIBC0aHnH3Ai+ihiRciJ3jkni7nxHBHfMh8jdfICmBZEreEdx/D+nVB1VkcyzaiG0LIgtFDJhWPIBfnJLnucc5L1zRf4j2yAliWxC3h3cewfl1QdRYXZJvRnaTMacnp0YRDLmJOmIItNnU5pxWHwdhGpcWSuCW8+xjWrwuqzuKMfYNRwpyWSnuceKQptjHb2TGikzVX4E2ygkrLfnGC+2K+eoxvr2v2NOSd08VSpfvZQ17s1jZr3JD2sYFVmgKwxDSgkzTcTyfOHHKXXLw65ta59/TSLt4mTFnslhji/k4dk+fQMwWwvsnsfuR10keVotjj55nsy805MF0+KJHJYhWN6ArzYfE4pJMz2I7yc8fcI1euzrhxKLYod5aPKZ9WmLdZUGKK6XPSY/LyXXBK57C+DsiMavvJA64256t4VB48q9HZ3S+coyseok3nDPWhNy/9LEFu1tS5QKXlAdPnIPGbbk2H0dSiKyMFYx0ab3J10l9oVhlc8BBt8iGVlq64FmKDYq9MJVN8xfNVrlE/xk2mz0HiLzSriJH1TPLV7j/QrMXLXPAQbfIhlZaeuBZS8PzexmNmz3SVDtrHuMv0OTHxE2E4pHPWZIjMZ5KvNq9r1rD/WYmOgp64+is+PNEXJl5knzCPiU0RbZPDVeJgZ4XM52PDIAQkMdIv4seCx+gSoZwt82fQ5t9l+pz8KHHGzmMSjwczT+wNJowZ4rbr9OtQPDPTKTPmcnM+51H9A1zWAzr7e6WrGDkwHCP9B66wjgKL8PFDQbguydEqr7+xIsogaBF1cIBGDIefxug5EX0plGqkYZ7WAW8wfQ4SxSORRbeCd5Zc8Ev7+EmXNwZ5nfTrUB0hR3JDCZm8DiNPWSBlsUFTjcyFsY2Ogp64KkZreHnCU2IMA9vl9bB9ATIPsgUqR5985QFasCuqpKHwsyeMJbGUCCE5DfO0DniD6XPqW+G90ZP99T3Fm8FyDPI66ZehdFYiOMI/7KeJXJSJQFxQlF2w2dEgH5SMbXQU9MRVMVrDi1FMDRszFm1iqrRA5eiTrzxAC3jiu2Q7DqVdwk4ZqT2zNA94gelzwuccYBuuoS1HaQxAXif9MgSJgqJYPfIkbTnC3yAfdJ3zFR0FPXHNWHwujGIKr5/IfgKuK3KwSuvuqynPoQU8FAk6COnPdgk7ZQSeVvKAO3vuMH2OTMSdkAt+aRNsy1EaA5DXSb8M1YHj90uawlgU5gdI0RSP0Ty2wG6yYGyjo6AnrhE7XPBiFJNMz/Zh5atoUaSWdPfVlOfQInrCXAVPOQVUqwikLa30Lvod95g+RyY2bJpqvxylMQB5nfTLUBWQtWIQC1rFMS+Eu3ydBfmlJmMbHQU9cVWMHPBiFJNMTzbNMlKRg1Vad18Dmc/3Hz1hLqN5kv4M7YBNxLSjcHPDNdr8u0yfIxMbNk21X47SGIC8TvplqAoUbYggPDkgxzDE94WpRX6lnaSP6MqE0aD6KmkJJ0Yxyexo8ywjFTlYpXX3NZCC2YyOMMtqsGmqHpMI3sKfs9obrlGm32b6HJnYsGmq/XKUxgDkddIvQ/UHmGvFEM8xwHZ2HTZHDrJVkbM6SR/RlQmjxSnISzgxiik+MdtkllltcrBK6+5rITawGR1hathlUol4zYRYtjdcoky/zfQ5MrHx1miq/XKUxoBY5zr9MiRfAVmiVCrLgWrkCTYh7RP5oE7SR3RlwmhSRnkFX3MRpjzkBVZNcrBK6+5rUV16MUFfdpymklSrSOKhlX+NMv020+cUifVbg00LHqpRGgOQ10m/Don3SYMoxXZUKQKN8Zjxc4E4p5P1DR0FA3HxKTBGUiBNWARghim6sGqSY1VWb9sF6VyajjkYyUmwCUeYsoElExdpdxqLtDHxlLeZPic9dyBcCRxpwgJr8tN/JzyW0ZeNAakGTS26IezmUUzS7gWSC/4m+Vl6Wd/QUTASdzyGfJJghQFenmikHDmTEawwkN0mB6u07r4L6GhR8rzEFCweCTJPp8Ul/GIrredRb7jJ5Dn0CDI3rthNY1hjCpCVnCJ5AmR1krt15DmYec1ujMGBALLTFLdjahJz+lnf0FFgSVyl5bm4hY93v9RCEV2+OkcHVHXE7dftzTpJVlBpeS5u4ePdL7VQRJevztEBVR1x+3V7s06SFVRanotb+Hj3K311x1+dowOqOuL26/ZmnSQrqLQ8F7fo8UKZ+5UWiRjy1Tk6oKojbr9ub9ZJsoJKy1NxxzvIr+EJz6oskTDBV+fogKqOuP268/u1oAVGjSVxlZb94pbw1WPYvC6o6ojbr9ubdZKsoNKyX9wSvnoMm9cFVR1x+3V7s06SFVRa9otbwlePYfO6oKojbr9ub9ZJsoJKy35xS/jqMWxeF1R1xO3X7c06SVZQadkvbglfPYbN64Kqjrj9ur1ZJ8kKKi37xS3hq8eweV1Q1RG3X7c36yRZQaVlv7glfPUYNq8Lqjri9uuWzbofSKlBfCuQUr80xH8fPM/L4DBzQBxNLZC2F0NaIKUG8a1ASv0+Ef998Dwvg8PMAXE0tUDaXqDFmcRv7A9j/OX6p6fEm/UP4836t/Bm/cN4s/4tvFn/MN6sfwtv1j+MN+vfAv9dzvmb4C3bxJtVCV6q8zfBW7aJN6vTw78PQ/jLcHr4v6Ibwt+F08H6Hwz/LfxdOB3M/2vcP4W/Cuea0Kv+hZjBX4VzDTWrfyJW8DfhXMK96p+IFfxNOJegWf0bMYK/COcKtKo3qxX8RThXoFUP4HD24u/BuQCNGoDH2Yu/B+cCNCoBl7MVfw1OD/8+DOEvw+nh34ch/GU4Pfz7MIS/DKeHfx+G8Jfh9PDvwxD+Mpwe/n0Ywl+G08O/D0P4y3B6+PdhCH8ZTg//PgzhL+MB+Os9W4GUNsjZCqQ4z/G7fAA+x61AShvkbAVSnOf4XT5g/5c4bFYY2/BmXYjf5QO8WYd4sy7E7/IB3qxDvFkX4nf5AG/WId6sC/G7fIA36xBv1oX4XT7Am3WIN+tC/C4f4M06xJt1IX6XD/BmHeLNuhC/ywd4sw7xZl2I3+UDvFmHeLMuxO/yAd6sQ7xZF+J3+YA/2axrH8qbdSF+lw+Y/RLPaee/4R7X4Z9oRzdZlwzio+10ZMnwSB1rq/3j+F0+YPZLLNPQDrkTMWc/LQPCbDNIGO5vvP/xHg1rq/3j+F0+YPJLlO0nN7GVo+f1YWO+ROS2GITLw8Bwj4q11f5x/C4fMPklFh1R2DRkB9YnR4+BgkG4PAz09wwVnRgqcObxu3zA3Jf4n2yJsnHDz7nGl81aSAPdPaOCFeoNzjV+lw+Y+xK7zdpqluw5xyoGCgbhc7Mei+DJNixasZncyUCc7YrLgKPH7/IBU19i+S2ft6RPPiE951hFtbtkIixPCyaOZ5OsYzp+kMdjTGWz9ftz5DLg6PG7fMDUlxhy8sd83lJ/5tJzjlUMFIzC4SflwKCJ7TiyhxdhQKCIX9CLOUr8Lh8w9SXigya73lJ/6dJzjlUMFIzCNMQcGDSxLce4EPYxhRmLNt2go8Pv8gEzXyKnpA48b9nZrByM58XcvAeRIi5tzHHRpBt0dPhdPmDmS+SUH2zWY2YzxcMMT85J8TbdoKPD7/IBE1/i8V1HsKYpEf0Z6RnWHyjohkkUw0vyYqaxEYCncGHRpBt0dPhdPmDiS4wZ8ftO33mkriE8VezMQEE3HGOtZpWuFEhDK/eCbtDR4Xf5gPGXmDOidd5Tda/MOIcqqs0lvXCOsZV/OYlDMcaFsDHHRZNu0NHhd/mA8ZeYE1JTnjeJbmXjvO4xUNAL51D5WytN0iP9aazjbbpBR4ff5QOGX6JIOL5vLKIRYznAU5XQQRzQohMWoSiNJl6EIf5dhziGFISjDy6a2nSDjg6/yweMvsTwZSOFzIZNjB1XDJKuw+IAMsmmqWGGFZnww4iJsJp0Qo4Wv8sH7P8SBwqWCHxUxJt1IX6XD7DZrOI3uiUCHxXZf0V/CL/LB+z/ElsKxJ9Llwh8VGT/Ff0h/C4fsP9LbCmgZuXAEoGPiuy/oj+E3+UD9n+JLQVo1hBaIDCWusn+K/pD+F0+YP+X2FLA7QXg24Y360L8Lh9goRcGIG8b3qwL8bt8gM1eQJsy8G3Dm3UhfpcPMN6sVgU6N/G7fIDpZmWTPBvxZl2I3+UDDDdrNHnehzfrQvwuH2C2WWF5s/4t/C4fYL4XvFn/FH6XD9B+iTk9/0mVCMvoEOaYQeYojJkPhRkgDXCwSSPDbtBwFfRijhK/ywfovkTxUfMnLnYXK0XZQWo3LI4Mx4slO2DGKtFTRmIo+0ouA44ev8sHKL/ElE5z+YEXLYB5goGCflinJ3kOI1k8S+vEZcDR43f5AOWXeEo/dwcM1TsZKOiHdXpyOFoyX5gFRU3nGX6XD1B+iTE97iq254Wm6EBBP6zTI3qZzaK5hVlQ1HSe4Xf5AOWXeE4v1uI3LswzDBT0wzo93qzb8bt8gPJLPKeXyxhV1Rwo6Id1emRvktkvDqaSnDn8Lh+g/BJP6dWS16qaAwX9sE6PN+t2/C4foPwST+nnzRzW1Rxk98M6Pd6s2/G7fIDySyzTq83cDU9KVvTDOj3erNvxu3yA8kss0+u93AJsTzJQ0A/r9Hizbsfv8gHKL7FIb2wN7aB8HwMF/bBOj2hWNvvFwVSSM4ff5QOUX6JMb+48EpTvY6CgH9bpaTRrc1PJTI4zid/lA5Rfokhvb5z6/AsGG/phnZ68iFa/OjOT40zid/kA5ZeY0y/2bWvWGT1pIbsWxjUTKc4sfpcPUH6J4iMHWCfUn/ZgQz+s0xPDMi35aGxR13Ru43f5ANWXGJqBN7AVoIBA/TYGCnrhrICtAAUE2YGEADxE7TnRDTo6/C4fsP9LHCgwL9DR4Hf5AG/WId6sC/G7fIA36xBv1oX4XT7Am3WIN+tC/C4f4M06xJt1IX6XD/BmHeLNuhC/ywd4sw7xZl2I3+UDvFmHeLMuxO/yAd6sQ7xZF+J3+QBv1iHerAvxu3yAN+sQb9aF+F0+wJt1iDfrQvwuH8B/jX0vkNIGOVuBFOc5fpcPwOe4FUhpg5ytQIrzHL9Lx/kRvFkd50fwZnWcH8Gb1XF+BG9Wx/kRvFkd50fwZnWcH8Gb1XF+gv/97/+46I45U3I+ngAAAABJRU5ErkJggg==;" vertex="1" parent="1">
          <mxGeometry x="70" y="260" width="520" height="230" as="geometry" />
        </mxCell>
        <mxCell id="VfQp6pYmzzfFE-GL6JmL-3" value="" style="rounded=0;whiteSpace=wrap;html=1;strokeColor=#FFFFFF;" vertex="1" parent="1">
          <mxGeometry x="410" y="250" width="120" height="60" as="geometry" />
        </mxCell>
        <mxCell id="VfQp6pYmzzfFE-GL6JmL-4" value="" style="endArrow=classic;startArrow=classic;html=1;exitX=0;exitY=0.5;exitDx=0;exitDy=0;entryX=0.093;entryY=0.623;entryDx=0;entryDy=0;entryPerimeter=0;dashed=1;" edge="1" parent="1" source="VfQp6pYmzzfFE-GL6JmL-3" target="uPOA6RyRJlq9qdNPXJUb-3">
          <mxGeometry width="50" height="50" relative="1" as="geometry">
            <mxPoint x="440" y="370" as="sourcePoint" />
            <mxPoint x="590" y="280" as="targetPoint" />
          </mxGeometry>
        </mxCell>
      </root>
    </mxGraphModel>
  </diagram>
</mxfile>
